# xmcd
#
# Track frame offsets: 
#        150
#        21010
#        39235
#
# Disc length: 584 seconds
#
# Revision: 0
# Processed by: cddbd v1.5.2PL0 Copyright (c) Steve Scherf et al.
# Submitted via: ExactAudioCopy v1.0b3
#
DISCID=16024603
DTITLE=Adolphson and Falk - Hjul snurrar runt
DYEAR=1999
DGENRE=Pop
TTITLE0=Hjul snurrar runt
TTITLE1=Tidsrymd
TTITLE2=En minut
EXTD=
EXTT0=
EXTT1=
EXTT2=
PLAYORDER=
